%TF.GenerationSoftware,KiCad,Pcbnew,10.0.1*%
%TF.CreationDate,2026-06-20T12:10:34+05:45*%
%TF.ProjectId,EverestMinishot,45766572-6573-4744-9d69-6e6973686f74,rev?*%
%TF.SameCoordinates,Original*%
%TF.FileFunction,Legend,Top*%
%TF.FilePolarity,Positive*%
%FSLAX46Y46*%
G04 Gerber Fmt 4.6, Leading zero omitted, Abs format (unit mm)*
G04 Created by KiCad (PCBNEW 10.0.1) date 2026-06-20 12:10:34*
%MOMM*%
%LPD*%
G01*
G04 APERTURE LIST*
%ADD10C,0.150000*%
%ADD11C,0.120000*%
G04 APERTURE END LIST*
D10*
X110666666Y-93074819D02*
X110666666Y-93789104D01*
X110666666Y-93789104D02*
X110619047Y-93931961D01*
X110619047Y-93931961D02*
X110523809Y-94027200D01*
X110523809Y-94027200D02*
X110380952Y-94074819D01*
X110380952Y-94074819D02*
X110285714Y-94074819D01*
X111666666Y-94074819D02*
X111095238Y-94074819D01*
X111380952Y-94074819D02*
X111380952Y-93074819D01*
X111380952Y-93074819D02*
X111285714Y-93217676D01*
X111285714Y-93217676D02*
X111190476Y-93312914D01*
X111190476Y-93312914D02*
X111095238Y-93360533D01*
X128496667Y-89497200D02*
X128639524Y-89544819D01*
X128639524Y-89544819D02*
X128877619Y-89544819D01*
X128877619Y-89544819D02*
X128972857Y-89497200D01*
X128972857Y-89497200D02*
X129020476Y-89449580D01*
X129020476Y-89449580D02*
X129068095Y-89354342D01*
X129068095Y-89354342D02*
X129068095Y-89259104D01*
X129068095Y-89259104D02*
X129020476Y-89163866D01*
X129020476Y-89163866D02*
X128972857Y-89116247D01*
X128972857Y-89116247D02*
X128877619Y-89068628D01*
X128877619Y-89068628D02*
X128687143Y-89021009D01*
X128687143Y-89021009D02*
X128591905Y-88973390D01*
X128591905Y-88973390D02*
X128544286Y-88925771D01*
X128544286Y-88925771D02*
X128496667Y-88830533D01*
X128496667Y-88830533D02*
X128496667Y-88735295D01*
X128496667Y-88735295D02*
X128544286Y-88640057D01*
X128544286Y-88640057D02*
X128591905Y-88592438D01*
X128591905Y-88592438D02*
X128687143Y-88544819D01*
X128687143Y-88544819D02*
X128925238Y-88544819D01*
X128925238Y-88544819D02*
X129068095Y-88592438D01*
X129401429Y-88544819D02*
X129639524Y-89544819D01*
X129639524Y-89544819D02*
X129830000Y-88830533D01*
X129830000Y-88830533D02*
X130020476Y-89544819D01*
X130020476Y-89544819D02*
X130258572Y-88544819D01*
X130591905Y-88640057D02*
X130639524Y-88592438D01*
X130639524Y-88592438D02*
X130734762Y-88544819D01*
X130734762Y-88544819D02*
X130972857Y-88544819D01*
X130972857Y-88544819D02*
X131068095Y-88592438D01*
X131068095Y-88592438D02*
X131115714Y-88640057D01*
X131115714Y-88640057D02*
X131163333Y-88735295D01*
X131163333Y-88735295D02*
X131163333Y-88830533D01*
X131163333Y-88830533D02*
X131115714Y-88973390D01*
X131115714Y-88973390D02*
X130544286Y-89544819D01*
X130544286Y-89544819D02*
X131163333Y-89544819D01*
X90246667Y-89497200D02*
X90389524Y-89544819D01*
X90389524Y-89544819D02*
X90627619Y-89544819D01*
X90627619Y-89544819D02*
X90722857Y-89497200D01*
X90722857Y-89497200D02*
X90770476Y-89449580D01*
X90770476Y-89449580D02*
X90818095Y-89354342D01*
X90818095Y-89354342D02*
X90818095Y-89259104D01*
X90818095Y-89259104D02*
X90770476Y-89163866D01*
X90770476Y-89163866D02*
X90722857Y-89116247D01*
X90722857Y-89116247D02*
X90627619Y-89068628D01*
X90627619Y-89068628D02*
X90437143Y-89021009D01*
X90437143Y-89021009D02*
X90341905Y-88973390D01*
X90341905Y-88973390D02*
X90294286Y-88925771D01*
X90294286Y-88925771D02*
X90246667Y-88830533D01*
X90246667Y-88830533D02*
X90246667Y-88735295D01*
X90246667Y-88735295D02*
X90294286Y-88640057D01*
X90294286Y-88640057D02*
X90341905Y-88592438D01*
X90341905Y-88592438D02*
X90437143Y-88544819D01*
X90437143Y-88544819D02*
X90675238Y-88544819D01*
X90675238Y-88544819D02*
X90818095Y-88592438D01*
X91151429Y-88544819D02*
X91389524Y-89544819D01*
X91389524Y-89544819D02*
X91580000Y-88830533D01*
X91580000Y-88830533D02*
X91770476Y-89544819D01*
X91770476Y-89544819D02*
X92008572Y-88544819D01*
X92913333Y-89544819D02*
X92341905Y-89544819D01*
X92627619Y-89544819D02*
X92627619Y-88544819D01*
X92627619Y-88544819D02*
X92532381Y-88687676D01*
X92532381Y-88687676D02*
X92437143Y-88782914D01*
X92437143Y-88782914D02*
X92341905Y-88830533D01*
%TO.C,J1*%
D11*
X112380000Y-97270000D02*
X112380000Y-102460000D01*
X109620000Y-102460000D02*
X112380000Y-102460000D01*
X109620000Y-97270000D02*
X112380000Y-97270000D01*
X109620000Y-97270000D02*
X109620000Y-102460000D01*
X109620000Y-96000000D02*
X109620000Y-94620000D01*
X109620000Y-94620000D02*
X111000000Y-94620000D01*
%TO.C,SW2*%
X133800000Y-97000000D02*
G75*
G02*
X126700000Y-97000000I-3550000J0D01*
G01*
X126700000Y-97000000D02*
G75*
G02*
X133800000Y-97000000I3550000J0D01*
G01*
X136360000Y-103110000D02*
X124140000Y-103110000D01*
X136360000Y-100600000D02*
X136360000Y-103110000D01*
X136360000Y-95700000D02*
X136360000Y-98300000D01*
X136360000Y-90890000D02*
X136360000Y-93400000D01*
X124140000Y-100600000D02*
X124140000Y-103110000D01*
X124140000Y-95700000D02*
X124140000Y-98300000D01*
X124140000Y-90890000D02*
X136360000Y-90890000D01*
X124140000Y-90890000D02*
X124140000Y-93400000D01*
%TO.C,SW1*%
X95550000Y-97000000D02*
G75*
G02*
X88450000Y-97000000I-3550000J0D01*
G01*
X88450000Y-97000000D02*
G75*
G02*
X95550000Y-97000000I3550000J0D01*
G01*
X98110000Y-103110000D02*
X85890000Y-103110000D01*
X98110000Y-100600000D02*
X98110000Y-103110000D01*
X98110000Y-95700000D02*
X98110000Y-98300000D01*
X98110000Y-90890000D02*
X98110000Y-93400000D01*
X85890000Y-100600000D02*
X85890000Y-103110000D01*
X85890000Y-95700000D02*
X85890000Y-98300000D01*
X85890000Y-90890000D02*
X98110000Y-90890000D01*
X85890000Y-90890000D02*
X85890000Y-93400000D01*
%TD*%
M02*
