%TF.GenerationSoftware,KiCad,Pcbnew,10.0.1*%
%TF.CreationDate,2026-06-20T12:10:34+05:45*%
%TF.ProjectId,EverestMinishot,45766572-6573-4744-9d69-6e6973686f74,rev?*%
%TF.SameCoordinates,Original*%
%TF.FileFunction,Copper,L2,Bot*%
%TF.FilePolarity,Positive*%
%FSLAX46Y46*%
G04 Gerber Fmt 4.6, Leading zero omitted, Abs format (unit mm)*
G04 Created by KiCad (PCBNEW 10.0.1) date 2026-06-20 12:10:34*
%MOMM*%
%LPD*%
G01*
G04 APERTURE LIST*
%TA.AperFunction,ComponentPad*%
%ADD10C,1.700000*%
%TD*%
%TA.AperFunction,ComponentPad*%
%ADD11R,1.700000X1.700000*%
%TD*%
%TA.AperFunction,ComponentPad*%
%ADD12O,3.200000X1.900000*%
%TD*%
G04 APERTURE END LIST*
D10*
%TO.P,J1,3,Pin_3_3*%
%TO.N,GPIO 27*%
X111000000Y-101080000D03*
%TO.P,J1,2,Pin_2_2*%
%TO.N,GPIO 17*%
X111000000Y-98540000D03*
D11*
%TO.P,J1,1,Pin_1_1*%
%TO.N,GND*%
X111000000Y-96000000D03*
%TD*%
D12*
%TO.P,SW2,2,2_2*%
%TO.N,GPIO 17*%
X136500000Y-99500000D03*
X124000000Y-99500000D03*
%TO.P,SW2,1,1_1*%
%TO.N,GND*%
X136500000Y-94500000D03*
X124000000Y-94500000D03*
%TD*%
%TO.P,SW1,2,2_2*%
%TO.N,GPIO 27*%
X98250000Y-99500000D03*
X85750000Y-99500000D03*
%TO.P,SW1,1,1_1*%
%TO.N,GND*%
X98250000Y-94500000D03*
X85750000Y-94500000D03*
%TD*%
%TA.AperFunction,Conductor*%
%TO.N,GND*%
G36*
X140002392Y-88001360D02*
G01*
X140005363Y-88000640D01*
X140035708Y-88011143D01*
X140066501Y-88020185D01*
X140068501Y-88022493D01*
X140071389Y-88023493D01*
X140091240Y-88048735D01*
X140112256Y-88072989D01*
X140112690Y-88076011D01*
X140114580Y-88078414D01*
X140117631Y-88110375D01*
X140122200Y-88142147D01*
X140120930Y-88144926D01*
X140121221Y-88147968D01*
X140106510Y-88176501D01*
X140093175Y-88205703D01*
X140090182Y-88208173D01*
X140089205Y-88210070D01*
X140061462Y-88231887D01*
X139886196Y-88333075D01*
X139678148Y-88492718D01*
X139492718Y-88678148D01*
X139333075Y-88886196D01*
X139201958Y-89113299D01*
X139201953Y-89113309D01*
X139101605Y-89355571D01*
X139101602Y-89355581D01*
X139033730Y-89608885D01*
X138999500Y-89868872D01*
X138999500Y-90131127D01*
X139020436Y-90290140D01*
X139033730Y-90391116D01*
X139055178Y-90471161D01*
X139101602Y-90644418D01*
X139101605Y-90644428D01*
X139201953Y-90886690D01*
X139201958Y-90886700D01*
X139333075Y-91113803D01*
X139492718Y-91321851D01*
X139492726Y-91321860D01*
X139678140Y-91507274D01*
X139678148Y-91507281D01*
X139886196Y-91666924D01*
X140113299Y-91798041D01*
X140113309Y-91798046D01*
X140355571Y-91898394D01*
X140355581Y-91898398D01*
X140608884Y-91966270D01*
X140868880Y-92000500D01*
X140868887Y-92000500D01*
X141131113Y-92000500D01*
X141131120Y-92000500D01*
X141391116Y-91966270D01*
X141644419Y-91898398D01*
X141886697Y-91798043D01*
X142113803Y-91666924D01*
X142321851Y-91507282D01*
X142321855Y-91507277D01*
X142321860Y-91507274D01*
X142507274Y-91321860D01*
X142507277Y-91321855D01*
X142507282Y-91321851D01*
X142666924Y-91113803D01*
X142735695Y-90994687D01*
X142768113Y-90938538D01*
X142818679Y-90890322D01*
X142887286Y-90877098D01*
X142952151Y-90903066D01*
X142992680Y-90959980D01*
X142999500Y-91000537D01*
X142999500Y-110999462D01*
X142979815Y-111066501D01*
X142927011Y-111112256D01*
X142857853Y-111122200D01*
X142794297Y-111093175D01*
X142768113Y-111061462D01*
X142666924Y-110886196D01*
X142507281Y-110678148D01*
X142507274Y-110678140D01*
X142321860Y-110492726D01*
X142321851Y-110492718D01*
X142113803Y-110333075D01*
X141886700Y-110201958D01*
X141886690Y-110201953D01*
X141644428Y-110101605D01*
X141644421Y-110101603D01*
X141644419Y-110101602D01*
X141391116Y-110033730D01*
X141333339Y-110026123D01*
X141131127Y-109999500D01*
X141131120Y-109999500D01*
X140868880Y-109999500D01*
X140868872Y-109999500D01*
X140637772Y-110029926D01*
X140608884Y-110033730D01*
X140355581Y-110101602D01*
X140355571Y-110101605D01*
X140113309Y-110201953D01*
X140113299Y-110201958D01*
X139886196Y-110333075D01*
X139678148Y-110492718D01*
X139492718Y-110678148D01*
X139333075Y-110886196D01*
X139201958Y-111113299D01*
X139201953Y-111113309D01*
X139101605Y-111355571D01*
X139101602Y-111355581D01*
X139033730Y-111608885D01*
X138999500Y-111868872D01*
X138999500Y-112131127D01*
X139020436Y-112290140D01*
X139033730Y-112391116D01*
X139055178Y-112471161D01*
X139101602Y-112644418D01*
X139101605Y-112644428D01*
X139201953Y-112886690D01*
X139201958Y-112886700D01*
X139333075Y-113113803D01*
X139492718Y-113321851D01*
X139492726Y-113321860D01*
X139678140Y-113507274D01*
X139678148Y-113507281D01*
X139886196Y-113666924D01*
X140061462Y-113768113D01*
X140109677Y-113818680D01*
X140122901Y-113887287D01*
X140096933Y-113952151D01*
X140040019Y-113992680D01*
X139999462Y-113999500D01*
X82000538Y-113999500D01*
X81933499Y-113979815D01*
X81887744Y-113927011D01*
X81877800Y-113857853D01*
X81906825Y-113794297D01*
X81938538Y-113768113D01*
X82113803Y-113666924D01*
X82321851Y-113507282D01*
X82321855Y-113507277D01*
X82321860Y-113507274D01*
X82507274Y-113321860D01*
X82507277Y-113321855D01*
X82507282Y-113321851D01*
X82666924Y-113113803D01*
X82798043Y-112886697D01*
X82898398Y-112644419D01*
X82966270Y-112391116D01*
X83000500Y-112131120D01*
X83000500Y-111868880D01*
X82966270Y-111608884D01*
X82898398Y-111355581D01*
X82802019Y-111122901D01*
X82798046Y-111113309D01*
X82798041Y-111113299D01*
X82666924Y-110886196D01*
X82507281Y-110678148D01*
X82507274Y-110678140D01*
X82321860Y-110492726D01*
X82321851Y-110492718D01*
X82113803Y-110333075D01*
X81886700Y-110201958D01*
X81886690Y-110201953D01*
X81644428Y-110101605D01*
X81644421Y-110101603D01*
X81644419Y-110101602D01*
X81391116Y-110033730D01*
X81333339Y-110026123D01*
X81131127Y-109999500D01*
X81131120Y-109999500D01*
X80868880Y-109999500D01*
X80868872Y-109999500D01*
X80637772Y-110029926D01*
X80608884Y-110033730D01*
X80355581Y-110101602D01*
X80355571Y-110101605D01*
X80113309Y-110201953D01*
X80113299Y-110201958D01*
X79886196Y-110333075D01*
X79678148Y-110492718D01*
X79492718Y-110678148D01*
X79333075Y-110886196D01*
X79231887Y-111061462D01*
X79181320Y-111109677D01*
X79112713Y-111122901D01*
X79047849Y-111096933D01*
X79007320Y-111040019D01*
X79000500Y-110999462D01*
X79000500Y-99385837D01*
X83649500Y-99385837D01*
X83649500Y-99614162D01*
X83685215Y-99839660D01*
X83755770Y-100056803D01*
X83828839Y-100200208D01*
X83859421Y-100260228D01*
X83993621Y-100444937D01*
X84155063Y-100606379D01*
X84339772Y-100740579D01*
X84435884Y-100789550D01*
X84543196Y-100844229D01*
X84543198Y-100844229D01*
X84543201Y-100844231D01*
X84659592Y-100882049D01*
X84760339Y-100914784D01*
X84985838Y-100950500D01*
X84985843Y-100950500D01*
X86514162Y-100950500D01*
X86739660Y-100914784D01*
X86956799Y-100844231D01*
X87160228Y-100740579D01*
X87344937Y-100606379D01*
X87506379Y-100444937D01*
X87640579Y-100260228D01*
X87744231Y-100056799D01*
X87814784Y-99839660D01*
X87829382Y-99747491D01*
X87850500Y-99614162D01*
X87850500Y-99385837D01*
X96149500Y-99385837D01*
X96149500Y-99614162D01*
X96185215Y-99839660D01*
X96255770Y-100056803D01*
X96328839Y-100200208D01*
X96359421Y-100260228D01*
X96493621Y-100444937D01*
X96655063Y-100606379D01*
X96839772Y-100740579D01*
X96935884Y-100789550D01*
X97043196Y-100844229D01*
X97043198Y-100844229D01*
X97043201Y-100844231D01*
X97159592Y-100882049D01*
X97260339Y-100914784D01*
X97485838Y-100950500D01*
X97485843Y-100950500D01*
X99014162Y-100950500D01*
X99239660Y-100914784D01*
X99456799Y-100844231D01*
X99660228Y-100740579D01*
X99844937Y-100606379D01*
X100006379Y-100444937D01*
X100140579Y-100260228D01*
X100244231Y-100056799D01*
X100314784Y-99839660D01*
X100329382Y-99747491D01*
X100350500Y-99614162D01*
X100350500Y-99385837D01*
X100314784Y-99160339D01*
X100244229Y-98943196D01*
X100140578Y-98739771D01*
X100006379Y-98555063D01*
X99885029Y-98433713D01*
X109649500Y-98433713D01*
X109649500Y-98646286D01*
X109682753Y-98856239D01*
X109748444Y-99058414D01*
X109844951Y-99247820D01*
X109969890Y-99419786D01*
X110120213Y-99570109D01*
X110292182Y-99695050D01*
X110300946Y-99699516D01*
X110351742Y-99747491D01*
X110368536Y-99815312D01*
X110345998Y-99881447D01*
X110300946Y-99920484D01*
X110292182Y-99924949D01*
X110120213Y-100049890D01*
X109969890Y-100200213D01*
X109844951Y-100372179D01*
X109748444Y-100561585D01*
X109682753Y-100763760D01*
X109649500Y-100973713D01*
X109649500Y-101186286D01*
X109682753Y-101396239D01*
X109748444Y-101598414D01*
X109844951Y-101787820D01*
X109969890Y-101959786D01*
X110120213Y-102110109D01*
X110292179Y-102235048D01*
X110292181Y-102235049D01*
X110292184Y-102235051D01*
X110481588Y-102331557D01*
X110683757Y-102397246D01*
X110893713Y-102430500D01*
X110893714Y-102430500D01*
X111106286Y-102430500D01*
X111106287Y-102430500D01*
X111316243Y-102397246D01*
X111518412Y-102331557D01*
X111707816Y-102235051D01*
X111729789Y-102219086D01*
X111879786Y-102110109D01*
X111879788Y-102110106D01*
X111879792Y-102110104D01*
X112030104Y-101959792D01*
X112030106Y-101959788D01*
X112030109Y-101959786D01*
X112155048Y-101787820D01*
X112155047Y-101787820D01*
X112155051Y-101787816D01*
X112251557Y-101598412D01*
X112317246Y-101396243D01*
X112350500Y-101186287D01*
X112350500Y-100973713D01*
X112317246Y-100763757D01*
X112251557Y-100561588D01*
X112155051Y-100372184D01*
X112155049Y-100372181D01*
X112155048Y-100372179D01*
X112030109Y-100200213D01*
X111879786Y-100049890D01*
X111707820Y-99924951D01*
X111707115Y-99924591D01*
X111699054Y-99920485D01*
X111648259Y-99872512D01*
X111631463Y-99804692D01*
X111653999Y-99738556D01*
X111699054Y-99699515D01*
X111707816Y-99695051D01*
X111819158Y-99614157D01*
X111879786Y-99570109D01*
X111879788Y-99570106D01*
X111879792Y-99570104D01*
X112030104Y-99419792D01*
X112054774Y-99385837D01*
X121899500Y-99385837D01*
X121899500Y-99614162D01*
X121935215Y-99839660D01*
X122005770Y-100056803D01*
X122078839Y-100200208D01*
X122109421Y-100260228D01*
X122243621Y-100444937D01*
X122405063Y-100606379D01*
X122589772Y-100740579D01*
X122685884Y-100789550D01*
X122793196Y-100844229D01*
X122793198Y-100844229D01*
X122793201Y-100844231D01*
X122909592Y-100882049D01*
X123010339Y-100914784D01*
X123235838Y-100950500D01*
X123235843Y-100950500D01*
X124764162Y-100950500D01*
X124989660Y-100914784D01*
X125206799Y-100844231D01*
X125410228Y-100740579D01*
X125594937Y-100606379D01*
X125756379Y-100444937D01*
X125890579Y-100260228D01*
X125994231Y-100056799D01*
X126064784Y-99839660D01*
X126079382Y-99747491D01*
X126100500Y-99614162D01*
X126100500Y-99385837D01*
X134399500Y-99385837D01*
X134399500Y-99614162D01*
X134435215Y-99839660D01*
X134505770Y-100056803D01*
X134578839Y-100200208D01*
X134609421Y-100260228D01*
X134743621Y-100444937D01*
X134905063Y-100606379D01*
X135089772Y-100740579D01*
X135185884Y-100789550D01*
X135293196Y-100844229D01*
X135293198Y-100844229D01*
X135293201Y-100844231D01*
X135409592Y-100882049D01*
X135510339Y-100914784D01*
X135735838Y-100950500D01*
X135735843Y-100950500D01*
X137264162Y-100950500D01*
X137489660Y-100914784D01*
X137706799Y-100844231D01*
X137910228Y-100740579D01*
X138094937Y-100606379D01*
X138256379Y-100444937D01*
X138390579Y-100260228D01*
X138494231Y-100056799D01*
X138564784Y-99839660D01*
X138579382Y-99747491D01*
X138600500Y-99614162D01*
X138600500Y-99385837D01*
X138564784Y-99160339D01*
X138494229Y-98943196D01*
X138390578Y-98739771D01*
X138256379Y-98555063D01*
X138094937Y-98393621D01*
X137910228Y-98259421D01*
X137706803Y-98155770D01*
X137489660Y-98085215D01*
X137264162Y-98049500D01*
X137264157Y-98049500D01*
X135735843Y-98049500D01*
X135735838Y-98049500D01*
X135510339Y-98085215D01*
X135293196Y-98155770D01*
X135089771Y-98259421D01*
X134905061Y-98393622D01*
X134743622Y-98555061D01*
X134609421Y-98739771D01*
X134505770Y-98943196D01*
X134435215Y-99160339D01*
X134399500Y-99385837D01*
X126100500Y-99385837D01*
X126064784Y-99160339D01*
X125994229Y-98943196D01*
X125890578Y-98739771D01*
X125756379Y-98555063D01*
X125594937Y-98393621D01*
X125410228Y-98259421D01*
X125206803Y-98155770D01*
X124989660Y-98085215D01*
X124764162Y-98049500D01*
X124764157Y-98049500D01*
X123235843Y-98049500D01*
X123235838Y-98049500D01*
X123010339Y-98085215D01*
X122793196Y-98155770D01*
X122589771Y-98259421D01*
X122405061Y-98393622D01*
X122243622Y-98555061D01*
X122109421Y-98739771D01*
X122005770Y-98943196D01*
X121935215Y-99160339D01*
X121899500Y-99385837D01*
X112054774Y-99385837D01*
X112155051Y-99247816D01*
X112251557Y-99058412D01*
X112317246Y-98856243D01*
X112350500Y-98646287D01*
X112350500Y-98433713D01*
X112317246Y-98223757D01*
X112251557Y-98021588D01*
X112155051Y-97832184D01*
X112155049Y-97832181D01*
X112155048Y-97832179D01*
X112030109Y-97660213D01*
X111916181Y-97546285D01*
X111882696Y-97484962D01*
X111887680Y-97415270D01*
X111929552Y-97359337D01*
X111960529Y-97342422D01*
X112092086Y-97293354D01*
X112092093Y-97293350D01*
X112207187Y-97207190D01*
X112207190Y-97207187D01*
X112293350Y-97092093D01*
X112293354Y-97092086D01*
X112343596Y-96957379D01*
X112343598Y-96957372D01*
X112349999Y-96897844D01*
X112350000Y-96897827D01*
X112350000Y-96250000D01*
X111433012Y-96250000D01*
X111465925Y-96192993D01*
X111500000Y-96065826D01*
X111500000Y-95934174D01*
X111465925Y-95807007D01*
X111433012Y-95750000D01*
X112350000Y-95750000D01*
X112350000Y-95102172D01*
X112349999Y-95102155D01*
X112343598Y-95042627D01*
X112343596Y-95042620D01*
X112293354Y-94907913D01*
X112293350Y-94907906D01*
X112207190Y-94792812D01*
X112207187Y-94792809D01*
X112092093Y-94706649D01*
X112092086Y-94706645D01*
X111957379Y-94656403D01*
X111957372Y-94656401D01*
X111897844Y-94650000D01*
X111250000Y-94650000D01*
X111250000Y-95566988D01*
X111192993Y-95534075D01*
X111065826Y-95500000D01*
X110934174Y-95500000D01*
X110807007Y-95534075D01*
X110750000Y-95566988D01*
X110750000Y-94650000D01*
X110102155Y-94650000D01*
X110042627Y-94656401D01*
X110042620Y-94656403D01*
X109907913Y-94706645D01*
X109907906Y-94706649D01*
X109792812Y-94792809D01*
X109792809Y-94792812D01*
X109706649Y-94907906D01*
X109706645Y-94907913D01*
X109656403Y-95042620D01*
X109656401Y-95042627D01*
X109650000Y-95102155D01*
X109650000Y-95750000D01*
X110566988Y-95750000D01*
X110534075Y-95807007D01*
X110500000Y-95934174D01*
X110500000Y-96065826D01*
X110534075Y-96192993D01*
X110566988Y-96250000D01*
X109650000Y-96250000D01*
X109650000Y-96897844D01*
X109656401Y-96957372D01*
X109656403Y-96957379D01*
X109706645Y-97092086D01*
X109706649Y-97092093D01*
X109792809Y-97207187D01*
X109792812Y-97207190D01*
X109907906Y-97293350D01*
X109907913Y-97293354D01*
X110039470Y-97342422D01*
X110095404Y-97384293D01*
X110119821Y-97449758D01*
X110104969Y-97518031D01*
X110083819Y-97546285D01*
X109969889Y-97660215D01*
X109844951Y-97832179D01*
X109748444Y-98021585D01*
X109682753Y-98223760D01*
X109649500Y-98433713D01*
X99885029Y-98433713D01*
X99844937Y-98393621D01*
X99660228Y-98259421D01*
X99456803Y-98155770D01*
X99239660Y-98085215D01*
X99014162Y-98049500D01*
X99014157Y-98049500D01*
X97485843Y-98049500D01*
X97485838Y-98049500D01*
X97260339Y-98085215D01*
X97043196Y-98155770D01*
X96839771Y-98259421D01*
X96655061Y-98393622D01*
X96493622Y-98555061D01*
X96359421Y-98739771D01*
X96255770Y-98943196D01*
X96185215Y-99160339D01*
X96149500Y-99385837D01*
X87850500Y-99385837D01*
X87814784Y-99160339D01*
X87744229Y-98943196D01*
X87640578Y-98739771D01*
X87506379Y-98555063D01*
X87344937Y-98393621D01*
X87160228Y-98259421D01*
X86956803Y-98155770D01*
X86739660Y-98085215D01*
X86514162Y-98049500D01*
X86514157Y-98049500D01*
X84985843Y-98049500D01*
X84985838Y-98049500D01*
X84760339Y-98085215D01*
X84543196Y-98155770D01*
X84339771Y-98259421D01*
X84155061Y-98393622D01*
X83993622Y-98555061D01*
X83859421Y-98739771D01*
X83755770Y-98943196D01*
X83685215Y-99160339D01*
X83649500Y-99385837D01*
X79000500Y-99385837D01*
X79000500Y-94250000D01*
X83671522Y-94250000D01*
X85149999Y-94250000D01*
X85124979Y-94310402D01*
X85100000Y-94435981D01*
X85100000Y-94564019D01*
X85124979Y-94689598D01*
X85149999Y-94750000D01*
X83671522Y-94750000D01*
X83685704Y-94839544D01*
X83756230Y-95056604D01*
X83859849Y-95259966D01*
X83994004Y-95444614D01*
X84155385Y-95605995D01*
X84340033Y-95740150D01*
X84543395Y-95843769D01*
X84760455Y-95914295D01*
X84985884Y-95950000D01*
X85500000Y-95950000D01*
X85500000Y-95100001D01*
X85560402Y-95125021D01*
X85685981Y-95150000D01*
X85814019Y-95150000D01*
X85939598Y-95125021D01*
X86000000Y-95100001D01*
X86000000Y-95950000D01*
X86514116Y-95950000D01*
X86739544Y-95914295D01*
X86956604Y-95843769D01*
X87159966Y-95740150D01*
X87344614Y-95605995D01*
X87505995Y-95444614D01*
X87640150Y-95259966D01*
X87743769Y-95056604D01*
X87814295Y-94839544D01*
X87828478Y-94750000D01*
X86350001Y-94750000D01*
X86375021Y-94689598D01*
X86400000Y-94564019D01*
X86400000Y-94435981D01*
X86375021Y-94310402D01*
X86350001Y-94250000D01*
X87828478Y-94250000D01*
X96171522Y-94250000D01*
X97649999Y-94250000D01*
X97624979Y-94310402D01*
X97600000Y-94435981D01*
X97600000Y-94564019D01*
X97624979Y-94689598D01*
X97649999Y-94750000D01*
X96171522Y-94750000D01*
X96185704Y-94839544D01*
X96256230Y-95056604D01*
X96359849Y-95259966D01*
X96494004Y-95444614D01*
X96655385Y-95605995D01*
X96840033Y-95740150D01*
X97043395Y-95843769D01*
X97260455Y-95914295D01*
X97485884Y-95950000D01*
X98000000Y-95950000D01*
X98000000Y-95100001D01*
X98060402Y-95125021D01*
X98185981Y-95150000D01*
X98314019Y-95150000D01*
X98439598Y-95125021D01*
X98500000Y-95100001D01*
X98500000Y-95950000D01*
X99014116Y-95950000D01*
X99239544Y-95914295D01*
X99456604Y-95843769D01*
X99659966Y-95740150D01*
X99844614Y-95605995D01*
X100005995Y-95444614D01*
X100140150Y-95259966D01*
X100243769Y-95056604D01*
X100314295Y-94839544D01*
X100328478Y-94750000D01*
X98850001Y-94750000D01*
X98875021Y-94689598D01*
X98900000Y-94564019D01*
X98900000Y-94435981D01*
X98875021Y-94310402D01*
X98850001Y-94250000D01*
X100328478Y-94250000D01*
X121921522Y-94250000D01*
X123399999Y-94250000D01*
X123374979Y-94310402D01*
X123350000Y-94435981D01*
X123350000Y-94564019D01*
X123374979Y-94689598D01*
X123399999Y-94750000D01*
X121921522Y-94750000D01*
X121935704Y-94839544D01*
X122006230Y-95056604D01*
X122109849Y-95259966D01*
X122244004Y-95444614D01*
X122405385Y-95605995D01*
X122590033Y-95740150D01*
X122793395Y-95843769D01*
X123010455Y-95914295D01*
X123235884Y-95950000D01*
X123750000Y-95950000D01*
X123750000Y-95100001D01*
X123810402Y-95125021D01*
X123935981Y-95150000D01*
X124064019Y-95150000D01*
X124189598Y-95125021D01*
X124250000Y-95100001D01*
X124250000Y-95950000D01*
X124764116Y-95950000D01*
X124989544Y-95914295D01*
X125206604Y-95843769D01*
X125409966Y-95740150D01*
X125594614Y-95605995D01*
X125755995Y-95444614D01*
X125890150Y-95259966D01*
X125993769Y-95056604D01*
X126064295Y-94839544D01*
X126078478Y-94750000D01*
X124600001Y-94750000D01*
X124625021Y-94689598D01*
X124650000Y-94564019D01*
X124650000Y-94435981D01*
X124625021Y-94310402D01*
X124600001Y-94250000D01*
X126078478Y-94250000D01*
X134421522Y-94250000D01*
X135899999Y-94250000D01*
X135874979Y-94310402D01*
X135850000Y-94435981D01*
X135850000Y-94564019D01*
X135874979Y-94689598D01*
X135899999Y-94750000D01*
X134421522Y-94750000D01*
X134435704Y-94839544D01*
X134506230Y-95056604D01*
X134609849Y-95259966D01*
X134744004Y-95444614D01*
X134905385Y-95605995D01*
X135090033Y-95740150D01*
X135293395Y-95843769D01*
X135510455Y-95914295D01*
X135735884Y-95950000D01*
X136250000Y-95950000D01*
X136250000Y-95100001D01*
X136310402Y-95125021D01*
X136435981Y-95150000D01*
X136564019Y-95150000D01*
X136689598Y-95125021D01*
X136750000Y-95100001D01*
X136750000Y-95950000D01*
X137264116Y-95950000D01*
X137489544Y-95914295D01*
X137706604Y-95843769D01*
X137909966Y-95740150D01*
X138094614Y-95605995D01*
X138255995Y-95444614D01*
X138390150Y-95259966D01*
X138493769Y-95056604D01*
X138564295Y-94839544D01*
X138578478Y-94750000D01*
X137100001Y-94750000D01*
X137125021Y-94689598D01*
X137150000Y-94564019D01*
X137150000Y-94435981D01*
X137125021Y-94310402D01*
X137100001Y-94250000D01*
X138578478Y-94250000D01*
X138564295Y-94160455D01*
X138493769Y-93943395D01*
X138390150Y-93740033D01*
X138255995Y-93555385D01*
X138094614Y-93394004D01*
X137909966Y-93259849D01*
X137706604Y-93156230D01*
X137489544Y-93085704D01*
X137264116Y-93050000D01*
X136750000Y-93050000D01*
X136750000Y-93899998D01*
X136689598Y-93874979D01*
X136564019Y-93850000D01*
X136435981Y-93850000D01*
X136310402Y-93874979D01*
X136250000Y-93899998D01*
X136250000Y-93050000D01*
X135735884Y-93050000D01*
X135510455Y-93085704D01*
X135293395Y-93156230D01*
X135090033Y-93259849D01*
X134905385Y-93394004D01*
X134744004Y-93555385D01*
X134609849Y-93740033D01*
X134506230Y-93943395D01*
X134435704Y-94160455D01*
X134421522Y-94250000D01*
X126078478Y-94250000D01*
X126064295Y-94160455D01*
X125993769Y-93943395D01*
X125890150Y-93740033D01*
X125755995Y-93555385D01*
X125594614Y-93394004D01*
X125409966Y-93259849D01*
X125206604Y-93156230D01*
X124989544Y-93085704D01*
X124764116Y-93050000D01*
X124250000Y-93050000D01*
X124250000Y-93899998D01*
X124189598Y-93874979D01*
X124064019Y-93850000D01*
X123935981Y-93850000D01*
X123810402Y-93874979D01*
X123750000Y-93899998D01*
X123750000Y-93050000D01*
X123235884Y-93050000D01*
X123010455Y-93085704D01*
X122793395Y-93156230D01*
X122590033Y-93259849D01*
X122405385Y-93394004D01*
X122244004Y-93555385D01*
X122109849Y-93740033D01*
X122006230Y-93943395D01*
X121935704Y-94160455D01*
X121921522Y-94250000D01*
X100328478Y-94250000D01*
X100314295Y-94160455D01*
X100243769Y-93943395D01*
X100140150Y-93740033D01*
X100005995Y-93555385D01*
X99844614Y-93394004D01*
X99659966Y-93259849D01*
X99456604Y-93156230D01*
X99239544Y-93085704D01*
X99014116Y-93050000D01*
X98500000Y-93050000D01*
X98500000Y-93899998D01*
X98439598Y-93874979D01*
X98314019Y-93850000D01*
X98185981Y-93850000D01*
X98060402Y-93874979D01*
X98000000Y-93899998D01*
X98000000Y-93050000D01*
X97485884Y-93050000D01*
X97260455Y-93085704D01*
X97043395Y-93156230D01*
X96840033Y-93259849D01*
X96655385Y-93394004D01*
X96494004Y-93555385D01*
X96359849Y-93740033D01*
X96256230Y-93943395D01*
X96185704Y-94160455D01*
X96171522Y-94250000D01*
X87828478Y-94250000D01*
X87814295Y-94160455D01*
X87743769Y-93943395D01*
X87640150Y-93740033D01*
X87505995Y-93555385D01*
X87344614Y-93394004D01*
X87159966Y-93259849D01*
X86956604Y-93156230D01*
X86739544Y-93085704D01*
X86514116Y-93050000D01*
X86000000Y-93050000D01*
X86000000Y-93899998D01*
X85939598Y-93874979D01*
X85814019Y-93850000D01*
X85685981Y-93850000D01*
X85560402Y-93874979D01*
X85500000Y-93899998D01*
X85500000Y-93050000D01*
X84985884Y-93050000D01*
X84760455Y-93085704D01*
X84543395Y-93156230D01*
X84340033Y-93259849D01*
X84155385Y-93394004D01*
X83994004Y-93555385D01*
X83859849Y-93740033D01*
X83756230Y-93943395D01*
X83685704Y-94160455D01*
X83671522Y-94250000D01*
X79000500Y-94250000D01*
X79000500Y-91000537D01*
X79020185Y-90933498D01*
X79072989Y-90887743D01*
X79142147Y-90877799D01*
X79205703Y-90906824D01*
X79231887Y-90938538D01*
X79333072Y-91113798D01*
X79333074Y-91113802D01*
X79492718Y-91321851D01*
X79492726Y-91321860D01*
X79678140Y-91507274D01*
X79678148Y-91507281D01*
X79886196Y-91666924D01*
X80113299Y-91798041D01*
X80113309Y-91798046D01*
X80355571Y-91898394D01*
X80355581Y-91898398D01*
X80608884Y-91966270D01*
X80868880Y-92000500D01*
X80868887Y-92000500D01*
X81131113Y-92000500D01*
X81131120Y-92000500D01*
X81391116Y-91966270D01*
X81644419Y-91898398D01*
X81886697Y-91798043D01*
X82113803Y-91666924D01*
X82321851Y-91507282D01*
X82321855Y-91507277D01*
X82321860Y-91507274D01*
X82507274Y-91321860D01*
X82507277Y-91321855D01*
X82507282Y-91321851D01*
X82666924Y-91113803D01*
X82798043Y-90886697D01*
X82898398Y-90644419D01*
X82966270Y-90391116D01*
X83000500Y-90131120D01*
X83000500Y-89868880D01*
X82966270Y-89608884D01*
X82898398Y-89355581D01*
X82802019Y-89122901D01*
X82798046Y-89113309D01*
X82798041Y-89113299D01*
X82666924Y-88886196D01*
X82507281Y-88678148D01*
X82507274Y-88678140D01*
X82321860Y-88492726D01*
X82321851Y-88492718D01*
X82113803Y-88333075D01*
X81938538Y-88231887D01*
X81890323Y-88181320D01*
X81877099Y-88112713D01*
X81903067Y-88047849D01*
X81959981Y-88007320D01*
X82000538Y-88000500D01*
X139999462Y-88000500D01*
X140002392Y-88001360D01*
G37*
%TD.AperFunction*%
%TD*%
M02*
